<svg xmlns="http://www.w3.org/2000/svg" viewBox="0 0 800 500" font-family="Segoe UI, Arial, sans-serif">
  <rect width="800" height="500" rx="12" fill="#0f1524"/>
  <rect width="800" height="36" rx="12" fill="#1a2338"/>
  <rect y="24" width="800" height="12" fill="#1a2338"/>
  <circle cx="22" cy="18" r="5" fill="#f87171"/><circle cx="40" cy="18" r="5" fill="#fbbf24"/><circle cx="58" cy="18" r="5" fill="#34d399"/>
  <text x="400" y="23" fill="#93a0b8" font-size="12" text-anchor="middle">SequensisCI — Builds</text>

  <!-- sidebar -->
  <rect x="0" y="36" width="170" height="464" fill="#121a2c"/>
  <text x="20" y="66" fill="#22d3ee" font-size="12" font-weight="700">REPOSITORIES</text>
  <text x="20" y="94" fill="#e8ecf5" font-size="12">paymentplansservice</text>
  <text x="20" y="120" fill="#93a0b8" font-size="12">applicationservice</text>
  <text x="20" y="146" fill="#93a0b8" font-size="12">messengerservice</text>
  <text x="20" y="172" fill="#93a0b8" font-size="12">servicinghub</text>
  <text x="20" y="198" fill="#93a0b8" font-size="12">accountmanagement…</text>
  <text x="20" y="224" fill="#93a0b8" font-size="12">communicationsserv…</text>
  <rect x="14" y="78" width="142" height="24" rx="6" fill="#6366f1" opacity="0.18"/>

  <!-- build rows -->
  <g>
    <rect x="190" y="56" width="590" height="64" rx="10" fill="#141b2e" stroke="#1f2940"/>
    <text x="210" y="82" fill="#e8ecf5" font-size="14" font-weight="700">paymentplansservice</text>
    <rect x="210" y="92" width="120" height="18" rx="9" fill="#22d3ee" opacity="0.15"/>
    <text x="270" y="105" fill="#22d3ee" font-size="11" text-anchor="middle">feature/vrp-consent</text>
    <rect x="640" y="72" width="80" height="24" rx="12" fill="#fbbf24" opacity="0.2"/>
    <text x="680" y="88" fill="#fbbf24" font-size="12" text-anchor="middle" font-weight="700">RUNNING</text>
    <rect x="190" y="116" width="590" height="4" rx="2" fill="#1f2940"/>
    <rect x="190" y="116" width="370" height="4" rx="2" fill="#6366f1"/>
  </g>
  <g>
    <rect x="190" y="132" width="590" height="56" rx="10" fill="#141b2e" stroke="#1f2940"/>
    <text x="210" y="156" fill="#e8ecf5" font-size="14" font-weight="700">applicationservice</text>
    <text x="210" y="176" fill="#93a0b8" font-size="11">master · #482 · 6m 12s</text>
    <rect x="640" y="146" width="80" height="24" rx="12" fill="#34d399" opacity="0.2"/>
    <text x="680" y="162" fill="#34d399" font-size="12" text-anchor="middle" font-weight="700">PASSED</text>
  </g>
  <g>
    <rect x="190" y="200" width="590" height="56" rx="10" fill="#141b2e" stroke="#1f2940"/>
    <text x="210" y="224" fill="#e8ecf5" font-size="14" font-weight="700">servicinghub</text>
    <text x="210" y="244" fill="#93a0b8" font-size="11">master · #217 · 4m 03s</text>
    <rect x="640" y="214" width="80" height="24" rx="12" fill="#34d399" opacity="0.2"/>
    <text x="680" y="230" fill="#34d399" font-size="12" text-anchor="middle" font-weight="700">PASSED</text>
  </g>

  <!-- live log -->
  <rect x="190" y="272" width="590" height="208" rx="10" fill="#0b0f1a" stroke="#1f2940"/>
  <text x="210" y="296" fill="#22d3ee" font-size="11" font-weight="700">LIVE LOG — paymentplansservice #483</text>
  <g font-family="Consolas, monospace" font-size="11">
    <text x="210" y="320" fill="#93a0b8">[12:04:11] git clone bitbucket.org/… (depth 1)</text>
    <text x="210" y="340" fill="#93a0b8">[12:04:19] docker run --rm sdk:8.0 dotnet restore</text>
    <text x="210" y="360" fill="#34d399">[12:05:02] Build succeeded. 0 Warning(s) 0 Error(s)</text>
    <text x="210" y="380" fill="#93a0b8">[12:05:04] dotnet test — 214 passed, 0 failed</text>
    <text x="210" y="400" fill="#93a0b8">[12:05:41] docker push gcr.io/…/paymentplansservice:1.4.483</text>
    <text x="210" y="420" fill="#93a0b8">[12:05:58] helm package charts/ → pushed</text>
    <text x="210" y="440" fill="#fbbf24">[12:06:01] ▊ streaming…</text>
  </g>
</svg>
